<svg width="1000" height="1000" viewBox="0 0 1000 1000" fill="none" xmlns="http://www.w3.org/2000/svg">
<rect width="1000" height="1000" fill="#E1E3D5"/>
<rect x="872.735" y="624.244" width="62.1225" height="62.1225" fill="#373737"/>
<rect x="437.878" y="562.123" width="62.1225" height="62.1225" fill="#373737"/>
<rect x="437.878" y="500" width="62.1225" height="62.1225" fill="#373737"/>
<rect x="437.878" y="437.877" width="62.1225" height="62.1225" fill="#373737"/>
<rect x="437.878" y="375.756" width="62.1225" height="62.1225" fill="#373737"/>
<rect x="437.878" y="313.633" width="62.1225" height="62.1225" fill="#373737"/>
<rect x="437.878" y="251.51" width="62.1225" height="62.1225" fill="#373737"/>
<rect x="437.878" y="189.389" width="62.1225" height="62.1225" fill="#373737"/>
<rect x="437.878" y="127.266" width="62.1225" height="62.1225" fill="#373737"/>
<rect x="500" y="189.389" width="62.1225" height="62.1225" fill="#373737"/>
<rect x="562.122" y="251.51" width="62.1225" height="62.1225" fill="#373737"/>
<rect x="624.245" y="313.633" width="62.1225" height="62.1225" fill="#373737"/>
<rect x="686.367" y="375.756" width="62.1225" height="62.1225" fill="#373737"/>
<rect x="748.49" y="437.877" width="62.1225" height="62.1225" fill="#373737"/>
<rect x="810.613" y="500" width="62.1225" height="62.1225" fill="#373737"/>
<rect x="500" y="251.51" width="62.1225" height="62.1225" fill="#373737"/>
<rect x="500" y="313.633" width="62.1225" height="62.1225" fill="#373737"/>
<rect x="500" y="375.756" width="62.1225" height="62.1225" fill="#373737"/>
<rect x="500" y="437.877" width="62.1225" height="62.1225" fill="#373737"/>
<rect x="500" y="500" width="62.1225" height="62.1225" fill="#373737"/>
<rect x="562.122" y="500" width="62.1225" height="62.1225" fill="#373737"/>
<rect x="624.245" y="500" width="62.1225" height="62.1225" fill="#373737"/>
<rect x="686.367" y="500" width="62.1225" height="62.1225" fill="#373737"/>
<rect x="748.49" y="500" width="62.1225" height="62.1225" fill="#373737"/>
<rect x="562.122" y="437.877" width="62.1225" height="62.1225" fill="#373737"/>
<rect x="624.245" y="437.877" width="62.1225" height="62.1225" fill="#373737"/>
<rect x="686.367" y="437.877" width="62.1225" height="62.1225" fill="#373737"/>
<rect x="624.245" y="375.756" width="62.1225" height="62.1225" fill="#373737"/>
<rect x="562.122" y="375.756" width="62.1225" height="62.1225" fill="#373737"/>
<rect x="562.122" y="313.633" width="62.1225" height="62.1225" fill="#373737"/>
<rect x="313.633" y="313.633" width="62.1225" height="62.1225" fill="#373737"/>
<rect x="313.633" y="375.756" width="62.1225" height="62.1225" fill="#373737"/>
<rect x="313.633" y="437.877" width="62.1225" height="62.1225" fill="#373737"/>
<rect x="313.633" y="500" width="62.1225" height="62.1225" fill="#373737"/>
<rect x="251.511" y="375.756" width="62.1225" height="62.1225" fill="#373737"/>
<rect x="251.511" y="437.877" width="62.1225" height="62.1225" fill="#373737"/>
<rect x="251.511" y="500" width="62.1225" height="62.1225" fill="#373737"/>
<rect x="189.387" y="500" width="62.1225" height="62.1225" fill="#373737"/>
<rect x="127.265" y="500" width="62.1225" height="62.1225" fill="#373737"/>
<rect x="189.387" y="437.877" width="62.1225" height="62.1225" fill="#373737"/>
<rect x="810.613" y="624.244" width="62.1225" height="62.1225" fill="#373737"/>
<rect x="748.49" y="624.244" width="62.1225" height="62.1225" fill="#373737"/>
<rect x="686.367" y="624.244" width="62.1225" height="62.1225" fill="#373737"/>
<rect x="624.245" y="624.244" width="62.1225" height="62.1225" fill="#373737"/>
<rect x="562.122" y="624.244" width="62.1225" height="62.1225" fill="#373737"/>
<rect x="500" y="624.244" width="62.1225" height="62.1225" fill="#373737"/>
<rect x="437.878" y="624.244" width="62.1225" height="62.1225" fill="#373737"/>
<rect x="375.755" y="624.244" width="62.1225" height="62.1225" fill="#373737"/>
<rect x="313.633" y="624.244" width="62.1225" height="62.1225" fill="#373737"/>
<rect x="251.511" y="624.244" width="62.1225" height="62.1225" fill="#373737"/>
<rect x="189.387" y="624.244" width="62.1225" height="62.1225" fill="#373737"/>
<rect x="127.265" y="624.244" width="62.1225" height="62.1225" fill="#373737"/>
<rect x="65.1426" y="624.244" width="62.1225" height="62.1225" fill="#373737"/>
<rect x="127.265" y="686.367" width="62.1225" height="62.1225" fill="#373737"/>
<rect x="189.387" y="686.367" width="62.1225" height="62.1225" fill="#373737"/>
<rect x="313.633" y="686.367" width="62.1225" height="62.1225" fill="#373737"/>
<rect x="375.755" y="686.367" width="62.1225" height="62.1225" fill="#373737"/>
<rect x="437.878" y="686.367" width="62.1225" height="62.1225" fill="#373737"/>
<rect x="500" y="686.367" width="62.1225" height="62.1225" fill="#373737"/>
<rect x="562.122" y="686.367" width="62.1225" height="62.1225" fill="#373737"/>
<rect x="624.245" y="686.367" width="62.1225" height="62.1225" fill="#373737"/>
<rect x="686.367" y="686.367" width="62.1225" height="62.1225" fill="#373737"/>
<rect x="748.49" y="686.367" width="62.1225" height="62.1225" fill="#373737"/>
<rect x="810.613" y="686.367" width="62.1225" height="62.1225" fill="#373737"/>
<rect x="748.49" y="748.49" width="62.1225" height="62.1225" fill="#373737"/>
<rect x="686.367" y="748.49" width="62.1225" height="62.1225" fill="#373737"/>
<rect x="624.245" y="748.49" width="62.1225" height="62.1225" fill="#373737"/>
<rect x="562.122" y="748.49" width="62.1225" height="62.1225" fill="#373737"/>
<rect x="500" y="748.49" width="62.1225" height="62.1225" fill="#373737"/>
<rect x="437.878" y="748.49" width="62.1225" height="62.1225" fill="#373737"/>
<rect x="375.755" y="748.49" width="62.1225" height="62.1225" fill="#373737"/>
<rect x="313.633" y="748.49" width="62.1225" height="62.1225" fill="#373737"/>
<rect x="251.511" y="748.49" width="62.1225" height="62.1225" fill="#373737"/>
<rect x="189.387" y="748.49" width="62.1225" height="62.1225" fill="#373737"/>
<rect x="251.511" y="810.611" width="62.1225" height="62.1225" fill="#373737"/>
<rect x="375.755" y="810.611" width="62.1225" height="62.1225" fill="#373737"/>
<rect x="313.633" y="810.611" width="62.1225" height="62.1225" fill="#373737"/>
<rect x="437.878" y="810.611" width="62.1225" height="62.1225" fill="#373737"/>
<rect x="500" y="810.611" width="62.1225" height="62.1225" fill="#373737"/>
<rect x="562.122" y="810.611" width="62.1225" height="62.1225" fill="#373737"/>
<rect x="624.245" y="810.611" width="62.1225" height="62.1225" fill="#373737"/>
<rect x="686.367" y="810.611" width="62.1225" height="62.1225" fill="#373737"/>
<rect x="251.511" y="686.367" width="62.1225" height="62.1225" fill="#373737"/>
</svg>
